<?xml version="1.0" standalone="no"?>
<!DOCTYPE svg PUBLIC "-//W3C//DTD SVG 20010904//EN" "http://www.w3.org/TR/2001/REC-SVG-20010904/DTD/svg10.dtd">
<svg style="fill: none;" id="logo" xmlns="http://www.w3.org/2000/svg" viewBox="0 0 84 96">
	<title>
		Logo
	</title>
	<g transform="translate(-8.000000, -2.000000)">
		<g transform="translate(11.000000, 5.000000)">
			<path d="M3935 11558 c-3 -7 -4 -1163 -3 -2568 l3 -2555 1915 -3 c1179 -2
1959 1 2030 7 195 16 343 55 507 131 326 152 597 450 744 817 86 215 148 532
149 756 l0 37 -555 0 -555 0 0 -46 c0 -63 -27 -178 -60 -250 -83 -184 -230
-317 -420 -380 -52 -18 -124 -19 -1382 -22 l-1328 -2 0 685 0 685 433 0 c399
0 440 -2 511 -20 119 -30 208 -82 304 -177 l84 -83 585 0 585 0 -7 33 c-10 46
-67 192 -103 264 -90 177 -282 407 -429 513 -96 69 -217 136 -319 176 l-93 37
48 56 c133 156 213 336 245 554 56 374 -57 720 -319 982 -224 224 -513 345
-897 375 -68 5 -471 10 -896 10 -609 0 -774 -3 -777 -12z m1620 -1002 c146
-67 246 -301 205 -477 -28 -121 -107 -235 -195 -282 -38 -21 -56 -22 -312 -25
l-273 -3 0 405 0 406 263 0 c254 0 264 -1 312 -24z m232 -3228 c-3 -8 -6 -5
-6 6 -1 11 2 17 5 13 3 -3 4 -12 1 -19z m-293 -238 c-6 -6 -10 -3 -10 10 0 13
4 16 10 10 7 -7 7 -13 0 -20z m-431 -415 c-3 -9 -8 -14 -10 -11 -3 3 -2 9 2
15 9 16 15 13 8 -4z
M8177 11563 c-4 -3 -7 -699 -7 -1545 l1 -1538 1424 0 1425 0 2 -1022
3 -1023 520 0 520 0 0 2565 0 2565 -520 0 -520 0 -3 -1022 -2 -1023 -870 0
-870 0 -1 273 c0 149 0 611 1 1025 l1 752 -549 0 c-302 0 -552 -3 -555 -7z
m320 -1959 c-3 -3 -12 -4 -19 -1 -8 3 -5 6 6 6 11 1 17 -2 13 -5z" fill="currentColor">
			</path>
			<polygon id="Shape" stroke="currentColor" stroke-width="5" stroke-linecap="round" stroke-linejoin="round" points="39 0 0 22 0 67 39 90 78 68 78 23">
			</polygon>
		</g>
	</g>
</svg>
